<svg xmlns="http://www.w3.org/2000/svg" xmlns:xlink="http://www.w3.org/1999/xlink" width="194.075" height="37.984" viewBox="0 0 194.075 37.984">
  <defs>
    <linearGradient id="linear-gradient" x1="1.084" y1="-0.272" x2="0.263" y2="1.093" gradientUnits="objectBoundingBox">
      <stop offset="0" stop-color="#fff"/>
      <stop offset="1" stop-color="#0058ff"/>
    </linearGradient>
    <linearGradient id="linear-gradient-2" x1="-0.086" y1="1.532" x2="0.854" y2="0.15" gradientUnits="objectBoundingBox">
      <stop offset="0" stop-color="#fff"/>
      <stop offset="0.095" stop-color="#f0f5ff"/>
      <stop offset="1" stop-color="#0058ff"/>
    </linearGradient>
    <linearGradient id="linear-gradient-3" x1="1.542" y1="0.505" x2="-0.126" y2="0.491" xlink:href="#linear-gradient"/>
    <linearGradient id="linear-gradient-4" x1="1.252" y1="0.026" x2="0.049" y2="0.706" xlink:href="#linear-gradient"/>
  </defs>
  <g id="Сгруппировать_3676" data-name="Сгруппировать 3676" transform="translate(-464 -31)">
    <g id="Монтажная_область_5" data-name="Монтажная область 5" transform="translate(464 30.996)">
      <path id="Контур_2536" data-name="Контур 2536" d="M11.59,20.57H5a4.671,4.671,0,0,1-4.79-4.7l.05-.23A19.4,19.4,0,0,1,11.96.06h0a2.336,2.336,0,0,1,2.79,1.77,2.365,2.365,0,0,1-.05,1.21L10.47,17.9a2.063,2.063,0,0,0,1.43,2.54c.18.05.61.14.61.14h-.92Z" fill="url(#linear-gradient)"/>
      <path id="Контур_2537" data-name="Контур 2537" d="M18.4,34.68a4.308,4.308,0,0,1-1.31,1.05,6.416,6.416,0,0,1-3.67.75,5.833,5.833,0,0,1-1.18-.12c-.25-.06-.44-.06-.62-.12A19.9,19.9,0,0,0,39.66,18.15v-.5a3.207,3.207,0,0,0-3.19-3.23H29.08a1.681,1.681,0,0,1,1.43,2.61c-3.89,5.7-7.8,11.39-11.68,17.09a3.472,3.472,0,0,1-.29.38l-.15.18Z" fill="url(#linear-gradient-2)"/>
      <path id="Контур_2538" data-name="Контур 2538" d="M39.64,17.75c-.25-6.16-3.91-11.16-8.61-15.19a7.017,7.017,0,0,0-1.88-1.15,3.158,3.158,0,0,0-4.14,1.92c0,.02-3.26,9.08-3.26,9.08l-.19.31-.37.99a.824.824,0,0,0,.47,1.06,1.266,1.266,0,0,0,.28.06H36.42a3.217,3.217,0,0,1,3.22,2.89v.02Z" fill="url(#linear-gradient-3)"/>
      <path id="Контур_2565" data-name="Контур 2565" d="M11.62,36.23a1.18,1.18,0,0,0,.2.04,1.624,1.624,0,0,1,.19.04,2.4,2.4,0,0,1,.24.04,5.833,5.833,0,0,0,1.18.12,6.259,6.259,0,0,0,3.67-.75,4.268,4.268,0,0,0,1.3-1.05.557.557,0,0,1-.77-.12.513.513,0,0,1-.1-.38L19.4,21.8a1.065,1.065,0,0,0-.88-1.23,1.087,1.087,0,0,0-.18-.01H5.03A4.747,4.747,0,0,1,.21,15.8,15.957,15.957,0,0,0,0,18.19,19.807,19.807,0,0,0,11.62,36.22h0Z" fill="url(#linear-gradient-4)"/>
    </g>
    <g id="Nascor-03" transform="translate(424 15.19)">
      <g id="Сгруппировать_3627" data-name="Сгруппировать 3627" transform="translate(91.445 18.75)">
        <path id="Контур_2539" data-name="Контур 2539" d="M124.5,20.5h6.834l12.351,21.483V20.5h6.081V51.3h-6.52L130.581,29.441V51.3H124.5Z" transform="translate(-124.5 -20.5)" fill="#0058ff"/>
        <path id="Контур_2540" data-name="Контур 2540" d="M181.821,42.167a9.35,9.35,0,0,0,2.382-.5,1.823,1.823,0,0,0,1.317-1.693,1.987,1.987,0,0,0-1-1.944,6.137,6.137,0,0,0-2.947-.564,3.954,3.954,0,0,0-3.072,1.066,4.762,4.762,0,0,0-.878,2.132H171.79a8.842,8.842,0,0,1,1.693-4.953C175.05,33.7,177.808,32.7,181.7,32.7a14.931,14.931,0,0,1,6.771,1.5c1.944,1,2.947,2.884,2.947,5.643V50.38c0,.752,0,1.63.063,2.633a3.849,3.849,0,0,0,.376,1.63,1.97,1.97,0,0,0,.878.69v.878h-6.52a5.2,5.2,0,0,1-.376-1.317c-.063-.439-.125-.878-.188-1.379a13.016,13.016,0,0,1-2.884,2.32,8.633,8.633,0,0,1-4.389,1.129,7.7,7.7,0,0,1-5.2-1.755,6.347,6.347,0,0,1-2.069-5.078,6.573,6.573,0,0,1,3.323-6.144,14.741,14.741,0,0,1,5.329-1.5Zm3.7,2.821a4.158,4.158,0,0,1-1.191.564,11.461,11.461,0,0,1-1.63.439l-1.379.251a10.54,10.54,0,0,0-2.759.815,2.78,2.78,0,0,0-1.442,2.57A2.878,2.878,0,0,0,178,51.885a3.018,3.018,0,0,0,2.132.69,6.385,6.385,0,0,0,3.636-1.129c1.129-.752,1.693-2.132,1.755-4.138Z" transform="translate(-141.884 -25.351)" fill="#0058ff"/>
        <path id="Контур_2541" data-name="Контур 2541" d="M215.881,48.663a3.793,3.793,0,0,0,.815,2.257c.752.815,2.132,1.191,4.138,1.191a6.889,6.889,0,0,0,2.821-.5,1.786,1.786,0,0,0,.251-3.135c-.564-.376-2.633-.94-6.269-1.818a12.279,12.279,0,0,1-5.517-2.445,5.243,5.243,0,0,1-1.63-4.138A7.01,7.01,0,0,1,213,34.62a10.245,10.245,0,0,1,7.084-2.32,13.085,13.085,0,0,1,7.022,1.693c1.818,1.129,2.821,3.135,3.135,5.956H224.22a3.673,3.673,0,0,0-.627-1.818,4.218,4.218,0,0,0-3.386-1.254,4.694,4.694,0,0,0-2.821.627,1.749,1.749,0,0,0-.815,1.442,1.621,1.621,0,0,0,.878,1.5,41.139,41.139,0,0,0,6.269,1.693,11.706,11.706,0,0,1,5.392,2.57,5.673,5.673,0,0,1,1.755,4.326,7.049,7.049,0,0,1-2.57,5.58c-1.693,1.442-4.326,2.194-7.9,2.194-3.636,0-6.269-.752-8.025-2.32a7.271,7.271,0,0,1-2.57-5.831h6.081Z" transform="translate(-156.321 -25.202)" fill="#0058ff"/>
        <path id="Контур_2542" data-name="Контур 2542" d="M263.347,41.377a4.978,4.978,0,0,0-.878-2.32,3.638,3.638,0,0,0-3.135-1.379,4.089,4.089,0,0,0-4.138,3.009,13.229,13.229,0,0,0-.564,4.263,12.258,12.258,0,0,0,.564,4.075,3.98,3.98,0,0,0,4.075,2.884,3.7,3.7,0,0,0,3.009-1.129,5.907,5.907,0,0,0,1.066-2.947h6.144a9.953,9.953,0,0,1-2.006,5.2c-1.881,2.633-4.7,3.95-8.4,3.95s-6.458-1.129-8.15-3.323a13.19,13.19,0,0,1-2.633-8.526c0-3.95.94-7.022,2.884-9.216a10.084,10.084,0,0,1,7.962-3.323,11.831,11.831,0,0,1,7.085,1.944c1.818,1.317,2.947,3.574,3.26,6.834Z" transform="translate(-170.684 -25.314)" fill="#0058ff"/>
        <path id="Контур_2543" data-name="Контур 2543" d="M307.064,53.14q-2.915,3.574-8.84,3.574t-8.84-3.574a13.225,13.225,0,0,1-2.884-8.652,13.463,13.463,0,0,1,2.884-8.652c1.944-2.445,4.89-3.636,8.84-3.636s6.9,1.191,8.84,3.636a13.463,13.463,0,0,1,2.884,8.652A13.225,13.225,0,0,1,307.064,53.14Zm-4.827-3.323a8.7,8.7,0,0,0,1.442-5.329,8.7,8.7,0,0,0-1.442-5.329,5.355,5.355,0,0,0-8.15,0,8.7,8.7,0,0,0-1.442,5.329,8.7,8.7,0,0,0,1.442,5.329,4.809,4.809,0,0,0,4.075,1.881A4.732,4.732,0,0,0,302.236,49.817Z" transform="translate(-184.935 -25.165)" fill="#0058ff"/>
        <path id="Контур_2544" data-name="Контур 2544" d="M343.552,32.563a2.017,2.017,0,0,1,.5.063v6.144a5.737,5.737,0,0,0-1-.063h-.69c-2.445,0-4.075.815-4.89,2.382a9.541,9.541,0,0,0-.69,4.075V56.136H330.7V33.064h5.768v4.012a13.521,13.521,0,0,1,2.445-3.135A6.6,6.6,0,0,1,343.3,32.5.377.377,0,0,0,343.552,32.563Z" transform="translate(-201.424 -25.277)" fill="#0058ff"/>
      </g>
    </g>
  </g>
</svg>
