<svg xmlns="http://www.w3.org/2000/svg" xmlns:xlink="http://www.w3.org/1999/xlink" width="39.66" height="37.984" viewBox="0 0 39.66 37.984">
  <defs>
    <linearGradient id="linear-gradient" x1="1.084" y1="-0.272" x2="0.263" y2="1.093" gradientUnits="objectBoundingBox">
      <stop offset="0" stop-color="#fff"/>
      <stop offset="1" stop-color="#0058ff"/>
    </linearGradient>
    <linearGradient id="linear-gradient-2" x1="-0.086" y1="1.532" x2="0.854" y2="0.15" gradientUnits="objectBoundingBox">
      <stop offset="0" stop-color="#fff"/>
      <stop offset="0.095" stop-color="#f0f5ff"/>
      <stop offset="1" stop-color="#0058ff"/>
    </linearGradient>
    <linearGradient id="linear-gradient-3" x1="1.542" y1="0.505" x2="-0.126" y2="0.491" xlink:href="#linear-gradient"/>
    <linearGradient id="linear-gradient-4" x1="1.252" y1="0.026" x2="0.049" y2="0.706" xlink:href="#linear-gradient"/>
  </defs>
  <g id="Монтажная_область_5" data-name="Монтажная область 5" transform="translate(0 -0.004)">
    <path id="Контур_2536" data-name="Контур 2536" d="M11.59,20.57H5a4.671,4.671,0,0,1-4.79-4.7l.05-.23A19.4,19.4,0,0,1,11.96.06h0a2.336,2.336,0,0,1,2.79,1.77,2.365,2.365,0,0,1-.05,1.21L10.47,17.9a2.063,2.063,0,0,0,1.43,2.54c.18.05.61.14.61.14h-.92Z" fill="url(#linear-gradient)"/>
    <path id="Контур_2537" data-name="Контур 2537" d="M18.4,34.68a4.308,4.308,0,0,1-1.31,1.05,6.416,6.416,0,0,1-3.67.75,5.833,5.833,0,0,1-1.18-.12c-.25-.06-.44-.06-.62-.12A19.9,19.9,0,0,0,39.66,18.15v-.5a3.207,3.207,0,0,0-3.19-3.23H29.08a1.681,1.681,0,0,1,1.43,2.61c-3.89,5.7-7.8,11.39-11.68,17.09a3.472,3.472,0,0,1-.29.38l-.15.18Z" fill="url(#linear-gradient-2)"/>
    <path id="Контур_2538" data-name="Контур 2538" d="M39.64,17.75c-.25-6.16-3.91-11.16-8.61-15.19a7.017,7.017,0,0,0-1.88-1.15,3.158,3.158,0,0,0-4.14,1.92c0,.02-3.26,9.08-3.26,9.08l-.19.31-.37.99a.824.824,0,0,0,.47,1.06,1.266,1.266,0,0,0,.28.06H36.42a3.217,3.217,0,0,1,3.22,2.89v.02Z" fill="url(#linear-gradient-3)"/>
    <path id="Контур_2565" data-name="Контур 2565" d="M11.62,36.23a1.18,1.18,0,0,0,.2.04,1.624,1.624,0,0,1,.19.04,2.4,2.4,0,0,1,.24.04,5.833,5.833,0,0,0,1.18.12,6.259,6.259,0,0,0,3.67-.75,4.268,4.268,0,0,0,1.3-1.05.557.557,0,0,1-.77-.12.513.513,0,0,1-.1-.38L19.4,21.8a1.065,1.065,0,0,0-.88-1.23,1.087,1.087,0,0,0-.18-.01H5.03A4.747,4.747,0,0,1,.21,15.8,15.957,15.957,0,0,0,0,18.19,19.807,19.807,0,0,0,11.62,36.22h0Z" fill="url(#linear-gradient-4)"/>
  </g>
</svg>
